<svg width="24" height="18" viewBox="0 0 24 18" fill="none" xmlns="http://www.w3.org/2000/svg">
<path d="M0 0H24V18H0V0Z" fill="#DE2910"/>
<path d="M2.87979 6.66004L4.49977 1.80005L6.11975 6.66004L1.7998 3.69005H7.19974L2.87979 6.66004Z" fill="#FFDE00"/>
<path d="M9.90673 1.8932L8.23956 2.26265L9.35162 0.966778L9.24255 2.71085L8.31738 1.16682L9.90673 1.8932Z" fill="#FFDE00"/>
<path d="M11.5891 4.02553L9.90917 3.71947L11.4368 2.95633L10.6598 4.5216L10.4059 2.73959L11.5891 4.02553Z" fill="#FFDE00"/>
<path d="M11.344 7.01717L9.93497 6.05254L11.641 5.9788L10.2932 7.09108L10.7881 5.36046L11.344 7.01717Z" fill="#FFDE00"/>
<path d="M9.22497 8.97153L8.29782 7.53753L9.89993 8.12843L8.22715 8.63384L9.35208 7.22868L9.22497 8.97153Z" fill="#FFDE00"/>
</svg>
