<svg width="16" height="14" viewBox="0 0 16 14" fill="none" xmlns="http://www.w3.org/2000/svg">
<path d="M14.5625 5.77612H9.3125V1.30249C9.3125 1.00587 9.17422 0.721399 8.92808 0.511656C8.68194 0.301914 8.3481 0.184082 8 0.184082C7.6519 0.184082 7.31806 0.301914 7.07192 0.511656C6.82578 0.721399 6.6875 1.00587 6.6875 1.30249V5.77612H1.4375C1.0894 5.77612 0.755564 5.89396 0.509423 6.1037C0.263281 6.31344 0.125 6.59791 0.125 6.89453C0.125 7.19115 0.263281 7.47562 0.509423 7.68537C0.755564 7.89511 1.0894 8.01294 1.4375 8.01294H6.6875V12.4866C6.6875 12.7832 6.82578 13.0677 7.07192 13.2774C7.31806 13.4871 7.6519 13.605 8 13.605C8.3481 13.605 8.68194 13.4871 8.92808 13.2774C9.17422 13.0677 9.3125 12.7832 9.3125 12.4866V8.01294H14.5625C14.9106 8.01294 15.2444 7.89511 15.4906 7.68537C15.7367 7.47562 15.875 7.19115 15.875 6.89453C15.875 6.59791 15.7367 6.31344 15.4906 6.1037C15.2444 5.89396 14.9106 5.77612 14.5625 5.77612Z" fill="black"/>
</svg>
