<svg width="36" height="36" viewBox="0 0 36 36" fill="none" xmlns="http://www.w3.org/2000/svg">
<g clip-path="url(#clip0)">
<path d="M13.659 11.4698C13.3002 11.1469 12.7261 11.1469 12.4032 11.5057L6.84182 17.39C6.5189 17.7488 6.5189 18.287 6.84182 18.61L12.4032 24.4943C12.5826 24.6737 12.8338 24.7813 13.0491 24.7813C13.2643 24.7813 13.4796 24.7096 13.659 24.5302C14.0178 24.2072 14.0178 23.6332 13.6949 23.2744L8.74346 18L13.6949 12.7256C14.0537 12.3668 14.0178 11.7928 13.659 11.4698ZM23.5978 11.5057C23.2749 11.1469 22.7008 11.1469 22.342 11.4698C21.9832 11.7928 21.9832 12.3668 22.3061 12.7256L27.2575 18L22.3061 23.2744C21.9832 23.6332 21.9832 24.2072 22.342 24.5302C22.5214 24.7096 22.7367 24.7813 22.9519 24.7813C23.2031 24.7813 23.4184 24.6737 23.5978 24.4943L29.1592 18.61C29.4821 18.2512 29.4821 17.713 29.1592 17.39L23.5978 11.5057ZM19.6151 11.3263C19.1487 11.2187 18.6463 11.5057 18.5387 11.9722L15.7401 23.5614C15.6324 24.0278 15.9195 24.5302 16.3859 24.6378C16.4577 24.6378 16.5294 24.6737 16.6012 24.6737C16.9959 24.6737 17.3905 24.3866 17.4623 23.992L20.2609 12.4027C20.4045 11.9363 20.0815 11.434 19.6151 11.3263ZM33.2495 11.0034C32.6754 9.24528 31.7067 7.98948 30.3073 7.20012C28.8004 6.30312 27.2934 5.44201 25.7865 4.58089C24.2795 3.71977 22.7725 2.85864 21.2656 1.96164C20.2968 1.42344 19.3281 1.1364 18.2517 1.10052C16.96 1.06464 15.8477 1.31581 14.8789 1.88989C14.0178 2.39221 13.1567 2.85865 12.3315 3.36097C10.1787 4.58089 7.9541 5.87256 5.76542 7.16424C3.68438 8.42004 2.5721 10.3576 2.5721 12.7256C2.53622 15.0578 2.5721 17.4259 2.5721 19.7222C2.5721 20.8704 2.5721 22.0544 2.5721 23.2026C2.5721 23.8843 2.67974 24.5302 2.85914 25.0684C3.43322 26.7189 4.40198 27.9746 5.76542 28.764C7.2365 29.6251 8.74346 30.4862 10.2504 31.3474C11.7574 32.2085 13.2643 33.0696 14.7354 33.9307C15.6324 34.4689 16.5653 34.756 17.6417 34.8277C17.8211 34.8277 18.0005 34.8277 18.144 34.8277C19.2922 34.8277 20.3327 34.5407 21.2656 34.0025C24.2077 32.2802 27.2575 30.4862 30.2715 28.764C31.2402 28.2258 32.0296 27.4723 32.6037 26.4677C33.2495 25.3554 33.5365 24.4225 33.5365 23.4179V12.6898C33.5007 12.1874 33.4289 11.5775 33.2495 11.0034ZM31.7067 23.4896C31.7067 24.1355 31.4914 24.8172 30.9891 25.6424C30.5944 26.36 30.0562 26.8982 29.3386 27.2929C26.2888 29.0152 23.239 30.8092 20.2968 32.5314C19.5433 32.962 18.7181 33.1414 17.7135 33.1055C16.9241 33.0337 16.2424 32.8184 15.5965 32.4238C14.0896 31.5626 12.6185 30.7015 11.1115 29.8404C9.60458 28.9793 8.1335 28.1182 6.62654 27.257C5.6219 26.683 4.94018 25.8218 4.50962 24.5302C4.3661 24.1714 4.29434 23.7408 4.29434 23.2385C4.29434 22.0903 4.29434 20.9063 4.29434 19.7581C4.29434 17.4618 4.29434 15.0937 4.29434 12.7615C4.29434 10.9675 5.04782 9.67585 6.62654 8.70709C8.77934 7.41541 11.0039 6.15961 13.1567 4.9038C14.0178 4.40149 14.8789 3.93504 15.7401 3.43272C16.3859 3.03804 17.0676 2.85864 17.9287 2.85864C18.0005 2.85864 18.0723 2.85864 18.144 2.85864C18.9334 2.89452 19.651 3.10981 20.3327 3.50449C21.8397 4.40149 23.3466 5.2626 24.8536 6.12372C26.3605 6.98484 27.8675 7.84597 29.3745 8.74297C30.3791 9.31705 31.0608 10.214 31.4914 11.5416C31.599 11.9004 31.6708 12.331 31.6708 12.7615V23.4896H31.7067Z" fill="#5E83EE"/>
</g>
<defs>
<clipPath id="clip0">
<rect width="52" height="52" fill="white" transform="translate(0.0600586 0.0600586) scale(0.69)"/>
</clipPath>
</defs>
</svg>
