<svg width="88" height="88" viewBox="0 0 88 88" fill="none" xmlns="http://www.w3.org/2000/svg">
<mask id="mask0" mask-type="alpha" maskUnits="userSpaceOnUse" x="5" y="0" width="78" height="88">
<path d="M44 0L82.1051 22V66L44 88L5.89488 66V22L44 0Z" fill="#C4C4C4"/>
</mask>
<g mask="url(#mask0)">
<path d="M44 0L82.1051 22V66L44 88L5.89488 66V22L44 0Z" fill="#26CADD"/>
<path d="M23 52L-15 52" stroke="white" stroke-width="5"/>
<path d="M36 -38L36 9C36 13.4183 39.5817 17 44 17L87 17" stroke="white" stroke-width="5"/>
<path d="M58 30L58 -65" stroke="#32325D" stroke-width="7"/>
<rect x="26" y="32" width="131" height="95" rx="8" fill="white"/>
<path d="M26 127V40C26 35.5817 29.5817 32 34 32H53" stroke="#32325D" stroke-width="7"/>
<path d="M62.876 63.2868L68.3989 74.7358C68.4969 74.9389 68.4104 75.226 68.2072 75.3719L58.8553 82.0858C58.6521 82.2317 58.4044 82.1845 58.3064 81.9814L52.7836 70.5324L45.7686 75.5245L45.5932 75.1519L45.7686 75.5245C45.5654 75.6704 45.3177 75.6232 45.2214 75.4144C45.1771 75.3227 45.1688 75.214 45.1962 75.1061L49.497 50.7239L49.5355 50.511C49.581 50.2578 49.7945 50.0604 50.0184 50.0673C50.0687 50.0709 50.1124 50.0792 50.1528 50.0988L50.3014 50.1509L69.8846 57.4126L69.6972 57.8472L69.8846 57.4126C70.0881 57.4871 70.1643 57.7456 70.0622 57.9821C70.0138 58.0919 69.9363 58.1784 69.848 58.233L62.8908 63.2718L62.876 63.2868Z" fill="#0146FF"/>
<circle cx="57" cy="32" r="7.5" fill="#26CADD" stroke="#32325D" stroke-width="5"/>
</g>
</svg>
