<svg width="88" height="88" viewBox="0 0 88 88" fill="none" xmlns="http://www.w3.org/2000/svg">
<mask id="mask0" mask-type="alpha" maskUnits="userSpaceOnUse" x="5" y="0" width="78" height="88">
<path d="M44 0L82.1051 22V66L44 88L5.89488 66V22L44 0Z" fill="#C4C4C4"/>
</mask>
<g mask="url(#mask0)">
<path d="M44 0L82.1051 22V66L44 88L5.89488 66V22L44 0Z" fill="#26CADD"/>
<path d="M64.5 35.5L27 56L76.5 100L64.5 35.5Z" fill="#32325D"/>
<circle r="41" transform="matrix(1 0 0 -1 17.5 4.5)" stroke="white" stroke-width="5" stroke-dasharray="4 4"/>
<circle cx="107" cy="137.154" r="112" stroke="white" stroke-width="6"/>
<circle cx="42.9995" cy="41.1538" r="22.1538" fill="white"/>
<path fill-rule="evenodd" clip-rule="evenodd" d="M29.0203 49.9553C35.0243 52.0427 41.8778 51.544 47.7467 48.005C53.6157 44.466 57.2552 38.6373 58.2111 32.353C52.2071 30.2656 45.3536 30.7643 39.4847 34.3032C33.6157 37.8423 29.9761 43.671 29.0203 49.9553Z" fill="#0146FF"/>
</g>
</svg>
