<svg width="88" height="88" viewBox="0 0 88 88" fill="none" xmlns="http://www.w3.org/2000/svg">
<mask id="mask0" mask-type="alpha" maskUnits="userSpaceOnUse" x="5" y="0" width="78" height="88">
<path d="M44 0L82.1051 22V66L44 88L5.89488 66V22L44 0Z" fill="#C4C4C4"/>
</mask>
<g mask="url(#mask0)">
<path d="M44 0L82.1051 22V66L44 88L5.89488 66V22L44 0Z" fill="#26CADD"/>
<path d="M7.21424 42.9531L6.60052 44L7.21424 45.0469L11.611 52.5469L13.3968 51.5L22.1904 66.5L20.4046 67.5469L24.8014 75.0469L25.4012 76.07H26.5872H31.0654V74H40.0218V76.07H44.5H48.9782V74H57.9347V76.07H62.4129H63.5988L64.1986 75.0469L68.5954 67.5469L66.8096 66.5L75.6032 51.5L77.389 52.5469L81.7858 45.0469L82.3995 44L81.7858 42.9531L77.389 35.4531L75.6032 36.5L66.8096 21.5L68.5954 20.4531L64.1986 12.9531L63.5988 11.93H62.4129H53.4564V14H35.5436V11.93H26.5872H25.4012L24.8014 12.9531L20.4046 20.4531L22.1904 21.5L13.3968 36.5L11.611 35.4531L7.21424 42.9531Z" stroke="white" stroke-width="6" stroke-dasharray="20 20"/>
<mask id="mask1" mask-type="alpha" maskUnits="userSpaceOnUse" x="9" y="14" width="71" height="60">
<path fill-rule="evenodd" clip-rule="evenodd" d="M62.4129 74H26.5872L9 44L26.5872 14H62.4129L80 44L62.4129 74Z" fill="white"/>
</mask>
<g mask="url(#mask1)">
<path d="M46.2778 44L67.6112 3.99988L83.1667 5.77779L101.833 51.5556L68.4995 84.4999L52.9995 57.9999L46.2778 44Z" fill="#0146FF"/>
<path d="M-4.8335 44L15.1665 4.44447L18.0005 0L35.5005 28.5L46.5005 48L36.5005 59L18.0005 86L-4.8335 44Z" fill="#32325D"/>
<path fill-rule="evenodd" clip-rule="evenodd" d="M54.844 62H34.156L24 44L34.156 26H54.844L65 44L54.844 62Z" fill="white"/>
<path d="M-4 45L16 5.44447L18.834 1L45.5 45L18.834 85.5L-4 45Z" fill="#32325D"/>
</g>
</g>
</svg>
