<svg width="88" height="88" viewBox="0 0 88 88" fill="none" xmlns="http://www.w3.org/2000/svg">
<mask id="mask0" mask-type="alpha" maskUnits="userSpaceOnUse" x="5" y="0" width="78" height="88">
<path d="M44 0L82.1051 22V66L44 88L5.89488 66V22L44 0Z" fill="#C4C4C4"/>
</mask>
<g mask="url(#mask0)">
<path d="M44 0L82.1051 22V66L44 88L5.89488 66V22L44 0Z" fill="#26CADD"/>
<path fill-rule="evenodd" clip-rule="evenodd" d="M18.619 68.5938L24.2154 78.14H31.0655V74H26.5873L22.1905 66.5L18.619 68.5938ZM40.0219 74V78.14H48.9784V74H40.0219ZM57.9348 74V78.14H64.7849L70.3813 68.5938L66.8098 66.5L62.413 74H57.9348ZM75.6034 51.5L79.1749 53.5938L84.7991 44L79.1749 34.4062L75.6034 36.5L80.0001 44L75.6034 51.5ZM66.8098 21.5L62.413 14H53.4566V9.86H64.7849L70.3813 19.4062L66.8098 21.5ZM35.5437 14V9.86H24.2154L18.619 19.4062L22.1905 21.5L26.5873 14H35.5437ZM13.3969 36.5L9.82541 34.4062L4.20117 44L9.82541 53.5938L13.3969 51.5L9.00014 44L13.3969 36.5Z" fill="white"/>
<mask id="mask1" mask-type="alpha" maskUnits="userSpaceOnUse" x="9" y="14" width="71" height="60">
<path fill-rule="evenodd" clip-rule="evenodd" d="M62.4129 74H26.5872L9 44L26.5872 14H62.4129L80 44L62.4129 74Z" fill="white"/>
</mask>
<g mask="url(#mask1)">
<path d="M46.2778 44L67.6112 3.9999L83.1667 5.77781L101.833 51.5556L68.4995 84.4999L52.9995 57.9999L46.2778 44Z" fill="#0146FF"/>
<path d="M-4.8335 44.0001L15.1665 4.44451L18.0005 3.8147e-05L35.5005 28.5L46.5005 48L36.5005 59L18.0005 86L-4.8335 44.0001Z" fill="#32325D"/>
<path fill-rule="evenodd" clip-rule="evenodd" d="M54.844 62H34.156L24 44L34.156 26H54.844L65 44L54.844 62Z" fill="white"/>
<path d="M-4 45L16 5.44448L18.834 1L45.5 45L18.834 85.5L-4 45Z" fill="#32325D"/>
</g>
</g>
</svg>
