<svg width="88" height="88" viewBox="0 0 88 88" fill="none" xmlns="http://www.w3.org/2000/svg">
<mask id="mask0" mask-type="alpha" maskUnits="userSpaceOnUse" x="5" y="0" width="78" height="88">
<path d="M44 0L82.1051 22V66L44 88L5.89488 66V22L44 0Z" fill="#C4C4C4"/>
</mask>
<g mask="url(#mask0)">
<path d="M44 0L82.1051 22V66L44 88L5.89488 66V22L44 0Z" fill="#26CADD"/>
<path d="M-14 32H104V36.2575H-14V32Z" fill="#0146FF"/>
<path d="M-14 32H15V62H-14V32Z" fill="#0146FF"/>
<path d="M-15.5 40.4999H102.5V44.7574H-15.5V40.4999Z" fill="#0146FF"/>
<path d="M-14.5 49.0001H103.5V53.2576H-14.5V49.0001Z" fill="#0146FF"/>
<path d="M-15 57.7425H103V62H-15V57.7425Z" fill="#0146FF"/>
<path d="M43.5 -3H64.5V92H43.5V-3Z" fill="#32325D"/>
<g clip-path="url(#clip0)">
<path d="M38.9756 16.9999V25.5574H32.5575V31.9755H24V36.2543H32.5575V40.533H24V44.8118H32.5575V48.9999H24V53.3693H32.5575V57.648H24V61.9999H32.5575V68.3449H38.9756V76.9024H43.2544V68.3449H47.5331V76.9024H51.8119V68.3449H56.0906V76.9024H60.3694V68.3449H64.6481V76.9024H68.9269V68.3449H75.345V61.9268H83.9025V57.648H75.345V53.3693H83.9025V49.0905H75.345V44.8118H83.9025V40.533H75.345V36.2543H83.9025V31.9755H75.345V25.5574H68.9269V16.9999H64.6481V25.5574H60.3694V16.9999H56.0906V25.5574H51.8119V16.9999H47.5331V25.5574H43.2544V16.9999H38.9756ZM37.3126 30.3125H70.5899V63.5898H37.3126V30.3125Z" fill="white"/>
<rect x="33.9404" y="26.9405" width="37.4413" height="37.4413" fill="white"/>
<rect x="43.5" y="36.4999" width="20.9209" height="20.9209" fill="white" stroke="#26CADD" stroke-width="5"/>
</g>
</g>
<defs>
<clipPath id="clip0">
<rect width="99.2174" height="99.2174" fill="white" transform="translate(19.54 12.54) scale(0.69)"/>
</clipPath>
</defs>
</svg>
