<svg width="88" height="88" viewBox="0 0 88 88" fill="none" xmlns="http://www.w3.org/2000/svg">
<mask id="mask0" mask-type="alpha" maskUnits="userSpaceOnUse" x="5" y="0" width="78" height="88">
<path d="M44 0L82.1051 22V66L44 88L5.89488 66V22L44 0Z" fill="#C4C4C4"/>
</mask>
<g mask="url(#mask0)">
<path d="M44 0L82.1051 22V66L44 88L5.89488 66V22L44 0Z" fill="#26CADD"/>
<rect x="22" y="24" width="122" height="89" fill="white"/>
<rect x="22" y="17" width="121" height="18" fill="#32325D"/>
<path d="M29 28.1703C31.6063 28.1703 34.1115 28.3841 36.5051 27.1557C38.7159 26.021 40.7937 24.52 42.8705 23.153C43.5725 22.6909 42.4902 23.4148 42.3701 23.5004C41.4989 24.1217 40.6062 24.7983 40.0213 25.7103C39.4156 26.6548 38.6391 28.2281 39.3542 29.3377C40.191 30.6361 42.155 29.1279 42.7454 28.4204C43.4337 27.5956 44.1398 26.6867 44.6773 25.752C44.6994 25.7134 45.184 24.8075 45.2332 24.8764C45.498 25.2471 45.1977 26.393 45.1637 26.8221C45.1181 27.3983 45.0597 28.1414 45.3861 28.6567C46.2875 30.0801 48.2396 26.9448 48.5549 26.3774C48.662 26.1846 49.0125 24.8943 49.1664 25.5713C49.3492 26.3754 49.4323 27.161 49.9169 27.8506C50.1659 28.2049 50.241 28.5969 50.7508 28.337C51.5771 27.9158 52.2538 27.0041 53.1135 26.697C54.0848 26.3502 54.9266 27.0445 55.8237 27.0445C58.2185 27.0445 60.6148 26.4996 62.9952 26.2384C64.7482 26.0461 66.6358 25.6686 68.4016 25.6686" stroke="white" stroke-width="1.4" stroke-linecap="round" stroke-linejoin="round"/>
<rect x="28" y="40" width="27" height="16" fill="#26CADD"/>
<rect x="28" y="62" width="27" height="26" fill="#0146FF"/>
<rect x="61" y="62" width="25" height="26" fill="#32325D"/>
<rect x="61" y="42" width="28" height="5" fill="#0146FF"/>
<rect x="61" y="50" width="28" height="5" fill="#0146FF"/>
</g>
</svg>
