<svg width="113" height="36" viewBox="0 0 113 36" fill="none" xmlns="http://www.w3.org/2000/svg">
<path fill-rule="evenodd" clip-rule="evenodd" d="M34.7794 24.2228C34.8308 24.2485 34.8944 24.2256 34.9141 24.1716C35.6167 22.2467 36 20.1681 36 18C36 8.05887 27.9411 0 18 0C8.05887 0 0 8.05887 0 18C0 27.9411 8.05887 36 18 36C19.8208 36 21.5786 35.7296 23.2351 35.2269C23.7726 35.0637 24.01 34.45 23.7528 33.9507L21.2072 29.0093C20.8066 28.2317 19.9212 27.8545 19.0511 27.9454C18.7058 27.9815 18.3552 28 18.0002 28C12.4774 28 8.00024 23.5228 8.00024 18C8.00024 12.4771 12.4774 7.99997 18.0002 7.99997C23.5231 7.99997 28.0002 12.4771 28.0002 18C28.0002 18.3882 27.9781 18.7713 27.9351 19.1481C27.8336 20.0352 28.2194 20.9428 29.0181 21.3421L34.7794 24.2228Z" fill="white"/>
<path fill-rule="evenodd" clip-rule="evenodd" d="M26.8934 33.7924C26.4503 34.0414 25.8963 33.8604 25.6599 33.4104L18.4799 19.7412C18.0534 18.9294 18.9286 18.0526 19.7412 18.4775L33.4235 25.6312C33.874 25.8667 34.056 26.4202 33.8079 26.8638C32.187 29.7619 29.7878 32.1657 26.8934 33.7924Z" fill="white"/>
<path d="M46.5107 14.8792C46.5107 14.2611 46.6288 13.6812 46.8649 13.1396C47.101 12.5979 47.4205 12.1257 47.8232 11.7229C48.233 11.3132 48.7087 10.9903 49.2503 10.7542C49.792 10.518 50.3719 10.4 50.9899 10.4H57.8441V13.3896H50.9899C50.7816 13.3896 50.5871 13.4278 50.4066 13.5042C50.226 13.5805 50.0663 13.6882 49.9274 13.8271C49.7955 13.959 49.6913 14.1153 49.6149 14.2958C49.5385 14.4764 49.5003 14.6708 49.5003 14.8792C49.5003 15.0875 49.5385 15.2854 49.6149 15.4729C49.6913 15.6535 49.7955 15.8132 49.9274 15.9521C50.0663 16.084 50.226 16.1882 50.4066 16.2646C50.5871 16.341 50.7816 16.3792 50.9899 16.3792H53.9795C54.5975 16.3792 55.1774 16.4972 55.7191 16.7333C56.2677 16.9625 56.7434 17.2819 57.1462 17.6917C57.5559 18.0944 57.8753 18.5701 58.1045 19.1187C58.3406 19.6604 58.4587 20.2403 58.4587 20.8583C58.4587 21.4764 58.3406 22.0562 58.1045 22.5979C57.8753 23.1396 57.5559 23.6153 57.1462 24.025C56.7434 24.4278 56.2677 24.7472 55.7191 24.9833C55.1774 25.2194 54.5975 25.3375 53.9795 25.3375H47.3441V22.3479H53.9795C54.1878 22.3479 54.3823 22.3097 54.5628 22.2333C54.7434 22.1569 54.8996 22.0528 55.0316 21.9208C55.1705 21.7819 55.2781 21.6222 55.3545 21.4417C55.4309 21.2611 55.4691 21.0667 55.4691 20.8583C55.4691 20.65 55.4309 20.4555 55.3545 20.275C55.2781 20.0944 55.1705 19.9382 55.0316 19.8062C54.8996 19.6673 54.7434 19.5597 54.5628 19.4833C54.3823 19.4069 54.1878 19.3687 53.9795 19.3687H50.9899C50.3719 19.3687 49.792 19.2507 49.2503 19.0146C48.7087 18.7785 48.233 18.459 47.8232 18.0562C47.4205 17.6465 47.101 17.1708 46.8649 16.6292C46.6288 16.0805 46.5107 15.4972 46.5107 14.8792Z" fill="white"/>
<path d="M64.8057 29.5875H61.9412V14.1812H62.6287L63.7641 15.525C64.021 15.2819 64.3023 15.0528 64.6078 14.8375C64.9134 14.6222 65.2294 14.4382 65.5557 14.2854C65.8891 14.1257 66.2328 14.0007 66.587 13.9104C66.9412 13.8201 67.2988 13.775 67.6599 13.775C68.4446 13.775 69.1807 13.9173 69.8682 14.2021C70.5627 14.4798 71.1669 14.8757 71.6807 15.3896C72.2016 15.9035 72.6113 16.525 72.9099 17.2542C73.2085 17.9764 73.3578 18.7785 73.3578 19.6604C73.3578 20.5771 73.2085 21.4035 72.9099 22.1396C72.6113 22.8687 72.2016 23.4903 71.6807 24.0042C71.1669 24.5111 70.5627 24.9 69.8682 25.1708C69.1807 25.4417 68.4446 25.5771 67.6599 25.5771C67.4099 25.5771 67.1599 25.5493 66.9099 25.4937C66.6669 25.4382 66.4238 25.3653 66.1807 25.275C65.9446 25.1778 65.7085 25.0701 65.4724 24.9521C65.2432 24.834 65.021 24.7125 64.8057 24.5875V29.5875ZM70.5037 19.6604C70.5037 19.1882 70.4273 18.7646 70.2745 18.3896C70.1287 18.0146 69.9273 17.6986 69.6703 17.4417C69.4134 17.1778 69.1113 16.9764 68.7641 16.8375C68.4169 16.6986 68.0488 16.6292 67.6599 16.6292C67.271 16.6292 66.903 16.6986 66.5557 16.8375C66.2155 16.9764 65.9169 17.1778 65.6599 17.4417C65.403 17.6986 65.1981 18.0146 65.0453 18.3896C64.8995 18.7646 64.8266 19.1882 64.8266 19.6604C64.8266 20.1118 64.8995 20.525 65.0453 20.9C65.1981 21.275 65.403 21.5944 65.6599 21.8583C65.9169 22.1222 66.2155 22.3271 66.5557 22.4729C66.903 22.6187 67.271 22.6917 67.6599 22.6917C68.0488 22.6917 68.4169 22.6187 68.7641 22.4729C69.1113 22.3271 69.4134 22.1222 69.6703 21.8583C69.9273 21.5944 70.1287 21.275 70.2745 20.9C70.4273 20.525 70.5037 20.1118 70.5037 19.6604Z" fill="white"/>
<path d="M80.2153 11.15C80.2153 11.4139 80.1632 11.6604 80.0591 11.8896C79.9619 12.1187 79.8264 12.3201 79.6528 12.4937C79.4792 12.6604 79.2744 12.7958 79.0382 12.9C78.8091 12.9972 78.5625 13.0458 78.2987 13.0458C78.0348 13.0458 77.7848 12.9972 77.5487 12.9C77.3195 12.7958 77.1181 12.6604 76.9445 12.4937C76.7778 12.3201 76.6424 12.1187 76.5382 11.8896C76.441 11.6604 76.3924 11.4139 76.3924 11.15C76.3924 10.893 76.441 10.65 76.5382 10.4208C76.6424 10.1847 76.7778 9.98332 76.9445 9.81665C77.1181 9.64304 77.3195 9.50762 77.5487 9.4104C77.7848 9.30623 78.0348 9.25415 78.2987 9.25415C78.5625 9.25415 78.8091 9.30623 79.0382 9.4104C79.2744 9.50762 79.4792 9.64304 79.6528 9.81665C79.8264 9.98332 79.9619 10.1847 80.0591 10.4208C80.1632 10.65 80.2153 10.893 80.2153 11.15ZM79.7257 25.3375H76.8612V14.1812H79.7257V25.3375Z" fill="white"/>
<path d="M86.6666 25.3375H83.8228V14.1812H84.5103L85.4478 15.2646C85.9062 14.8479 86.4235 14.5285 86.9999 14.3062C87.5832 14.0771 88.1909 13.9625 88.8228 13.9625C89.5034 13.9625 90.1457 14.0944 90.7499 14.3583C91.3541 14.6153 91.8819 14.9729 92.3332 15.4312C92.7846 15.8826 93.1388 16.4139 93.3957 17.025C93.6596 17.6292 93.7916 18.275 93.7916 18.9625V25.3375H90.9478V18.9625C90.9478 18.6708 90.8923 18.3965 90.7812 18.1396C90.6701 17.8757 90.5173 17.6465 90.3228 17.4521C90.1284 17.2576 89.9027 17.1048 89.6457 16.9937C89.3888 16.8826 89.1145 16.8271 88.8228 16.8271C88.5242 16.8271 88.243 16.8826 87.9791 16.9937C87.7152 17.1048 87.486 17.2576 87.2916 17.4521C87.0971 17.6465 86.9444 17.8757 86.8332 18.1396C86.7221 18.3965 86.6666 18.6708 86.6666 18.9625V25.3375Z" fill="white"/>
<path d="M110.68 28.3271H107.284L105.493 25.6396C105.396 25.6535 105.302 25.6604 105.212 25.6604C105.128 25.6604 105.045 25.6604 104.962 25.6604C104.253 25.6604 103.569 25.5667 102.909 25.3792C102.257 25.1986 101.642 24.9417 101.066 24.6083C100.496 24.268 99.9755 23.8618 99.5032 23.3896C99.031 22.9173 98.6248 22.3965 98.2845 21.8271C97.9512 21.2507 97.6907 20.6361 97.5032 19.9833C97.3227 19.3236 97.2324 18.6396 97.2324 17.9312C97.2324 17.2229 97.3227 16.5389 97.5032 15.8792C97.6907 15.2194 97.9512 14.6048 98.2845 14.0354C98.6248 13.466 99.031 12.9451 99.5032 12.4729C99.9755 12.0007 100.496 11.5979 101.066 11.2646C101.642 10.9312 102.257 10.6743 102.909 10.4937C103.569 10.3062 104.253 10.2125 104.962 10.2125C105.67 10.2125 106.354 10.3062 107.014 10.4937C107.673 10.6743 108.288 10.9312 108.857 11.2646C109.427 11.5979 109.948 12.0007 110.42 12.4729C110.892 12.9451 111.295 13.466 111.628 14.0354C111.962 14.6048 112.219 15.2194 112.399 15.8792C112.587 16.5389 112.68 17.2229 112.68 17.9312C112.68 18.6673 112.576 19.3826 112.368 20.0771C112.166 20.7715 111.878 21.4208 111.503 22.025C111.128 22.6222 110.673 23.1639 110.139 23.65C109.611 24.1361 109.021 24.5423 108.368 24.8687L110.68 28.3271ZM109.712 17.9312C109.712 17.2785 109.587 16.6639 109.337 16.0875C109.087 15.5042 108.746 15.0007 108.316 14.5771C107.892 14.1465 107.389 13.8062 106.805 13.5562C106.229 13.3062 105.614 13.1812 104.962 13.1812C104.302 13.1812 103.684 13.3062 103.107 13.5562C102.531 13.8062 102.028 14.1465 101.597 14.5771C101.166 15.0007 100.826 15.5042 100.576 16.0875C100.326 16.6639 100.201 17.2785 100.201 17.9312C100.201 18.584 100.326 19.1986 100.576 19.775C100.826 20.3444 101.166 20.8444 101.597 21.275C102.028 21.7055 102.531 22.0458 103.107 22.2958C103.684 22.5458 104.302 22.6708 104.962 22.6708C105.614 22.6708 106.229 22.5458 106.805 22.2958C107.389 22.0458 107.892 21.7055 108.316 21.275C108.746 20.8444 109.087 20.3444 109.337 19.775C109.587 19.1986 109.712 18.584 109.712 17.9312Z" fill="white"/>
</svg>
