<svg width="24" height="18" viewBox="0 0 24 18" fill="none" xmlns="http://www.w3.org/2000/svg">
<g clip-path="url(#clip0)">
<path fill-rule="evenodd" clip-rule="evenodd" d="M0 0.692578C0 0.310078 0.310078 0 0.692578 0H33.5074C33.8899 0 34.2 0.310078 34.2 0.692578C34.2 1.07508 33.8899 1.38516 33.5074 1.38516H0.692579C0.310079 1.38516 0 1.07508 0 0.692578ZM0 3.46289C0 3.08039 0.310078 2.77031 0.692578 2.77031H33.5074C33.8899 2.77031 34.2 3.08039 34.2 3.46289C34.2 3.84539 33.8899 4.15547 33.5074 4.15547H0.692579C0.310079 4.15547 0 3.84539 0 3.46289ZM0 6.23145C0 5.84797 0.310865 5.53711 0.694336 5.53711H33.5057C33.8891 5.53711 34.2 5.84797 34.2 6.23145C34.2 6.61492 33.8891 6.92578 33.5056 6.92578H0.694334C0.310863 6.92578 0 6.61492 0 6.23145ZM0 9C0 8.6175 0.310078 8.30742 0.692578 8.30742H33.5074C33.8899 8.30742 34.2 8.6175 34.2 9C34.2 9.3825 33.8899 9.69258 33.5074 9.69258H0.692579C0.310078 9.69258 0 9.3825 0 9ZM0 11.7703C0 11.3878 0.310078 11.0777 0.692578 11.0777H33.5074C33.8899 11.0777 34.2 11.3878 34.2 11.7703C34.2 12.1528 33.8899 12.4629 33.5074 12.4629H0.692579C0.310079 12.4629 0 12.1528 0 11.7703ZM0 14.5371C0 14.1546 0.310078 13.8445 0.692579 13.8445H33.5074C33.8899 13.8445 34.2 14.1546 34.2 14.5371C34.2 14.9196 33.8899 15.2297 33.5074 15.2297H0.692579C0.310078 15.2297 0 14.9196 0 14.5371ZM0 17.3074C0 16.9249 0.310078 16.6148 0.692578 16.6148H33.5074C33.8899 16.6148 34.2 16.9249 34.2 17.3074C34.2 17.6899 33.8899 18 33.5074 18H0.692579C0.310079 18 0 17.6899 0 17.3074Z" fill="#BD3D44"/>
<path fill-rule="evenodd" clip-rule="evenodd" d="M0 1.38513H34.2V2.77029H0V1.38513ZM0 4.15545H34.2V5.53709H0V4.15545ZM0 6.92225H34.2V8.3074H0V6.92225ZM0 9.69256H34.2V11.0777H0V9.69256ZM0 12.4629H34.2V13.848H0V12.4629ZM0 15.2297H34.2V16.6148H0V15.2297Z" fill="white"/>
<path fill-rule="evenodd" clip-rule="evenodd" d="M0 0H13.6793V9.69259H0V0Z" fill="#192F5D"/>
<path fill-rule="evenodd" clip-rule="evenodd" d="M1.13867 0.414795L1.26523 0.797998H1.66601L1.34258 1.03354L1.46562 1.42026L1.13867 1.1812L0.815234 1.41675L0.938281 1.03354L0.611328 0.797998H1.01914L1.13867 0.414795ZM3.42031 0.414795L3.54336 0.797998H3.94765L3.6207 1.03354L3.74375 1.42026L3.42031 1.1812L3.09336 1.41675L3.2164 1.03354L2.89297 0.797998H3.29375L3.42031 0.414795ZM5.69843 0.414795L5.825 0.797998H6.22226L5.89882 1.03354L6.02187 1.42026L5.69492 1.1812L5.37148 1.41675L5.49453 1.03354L5.16757 0.797998H5.57187L5.69843 0.414795ZM7.98007 0.414795L8.10312 0.797998H8.50741L8.18046 1.03354L8.30702 1.42026L7.98007 1.1812L7.65312 1.41675L7.77968 1.03354L7.45273 0.797998H7.85351L7.98007 0.414795ZM10.2582 0.414795L10.3848 0.797998H10.7855L10.4621 1.03354L10.5851 1.42026L10.2582 1.1812L9.93476 1.41675L10.0578 1.03354L9.73437 0.797998H10.1351L10.2582 0.414795ZM12.5398 0.414795L12.6629 0.797998H13.0672L12.7402 1.03354L12.8668 1.42026L12.5398 1.1812L12.2129 1.41675L12.3394 1.03354L12.0125 0.797998H12.4168L12.5398 0.414795ZM2.28125 1.38511L2.4043 1.76831H2.80859L2.48164 2.00386L2.60117 2.38706L2.28476 2.15151L1.95781 2.38706L2.07383 2.00386L1.75742 1.76831H2.1582L2.28125 1.38511ZM4.55937 1.38511L4.68593 1.76831H5.08671L4.75976 2.00386L4.88632 2.38706L4.55937 2.15151L4.23242 2.38706L4.35898 2.00386L4.03203 1.76831H4.43632L4.55937 1.38511ZM6.84101 1.38511L6.96406 1.76831H7.36835L7.0414 2.00386L7.16445 2.38706L6.84101 2.15151L6.51406 2.38706L6.6371 2.00386L6.31367 1.76831H6.71445L6.84101 1.38511ZM9.11913 1.38511L9.2457 1.76831H9.64648L9.31952 2.00386L9.44609 2.38706L9.11913 2.15151L8.7957 2.38706L8.91874 2.00386L8.59179 1.76831H8.9996L9.11913 1.38511ZM11.4008 1.38511L11.5238 1.76831H11.9281L11.6012 2.00386L11.7242 2.38706L11.4008 2.15151L11.0738 2.38706L11.1969 2.00386L10.8734 1.76831H11.2742L11.4008 1.38511ZM1.13867 2.3519L1.26523 2.74214H1.66601L1.34258 2.97768L1.46562 3.36089L1.13867 3.12182L0.815234 3.36089L0.938281 2.97417L0.611328 2.73862H1.01914L1.13867 2.3519ZM3.42031 2.3519L3.54336 2.73862H3.94765L3.6207 2.97417L3.74375 3.35737L3.42031 3.11831L3.09336 3.35737L3.2164 2.97065L2.89297 2.73511H3.29375L3.42031 2.3519ZM5.69843 2.3519L5.825 2.73862H6.22226L5.89882 2.97417L6.02187 3.35737L5.69492 3.11831L5.37148 3.35737L5.49453 2.97065L5.16757 2.73511H5.57187L5.69843 2.3519ZM7.98007 2.3519L8.10312 2.73862H8.50741L8.18046 2.97417L8.30702 3.35737L7.98007 3.11831L7.65312 3.35737L7.77968 2.97065L7.45273 2.73511H7.85351L7.98007 2.3519ZM10.2582 2.3519L10.3848 2.73862H10.7855L10.4621 2.97417L10.5851 3.35737L10.2582 3.11831L9.93476 3.35737L10.0578 2.97065L9.73437 2.73511H10.1351L10.2582 2.3519ZM12.5398 2.3519L12.6629 2.73862H13.0672L12.7402 2.97417L12.8668 3.35737L12.5398 3.11831L12.2129 3.35737L12.3394 2.97065L12.0125 2.73511H12.4168L12.5398 2.3519ZM2.28125 3.32221L2.4043 3.70542H2.80859L2.48164 3.94096L2.60469 4.32768L2.28125 4.08862L1.9543 4.32417L2.07734 3.94096L1.75391 3.70542H2.15469L2.28125 3.32221ZM4.55937 3.32221L4.68593 3.70542H5.08671L4.75976 3.94096L4.88632 4.32768L4.55937 4.08862L4.23242 4.32417L4.35898 3.94096L4.03203 3.70542H4.43632L4.55937 3.32221ZM6.84101 3.32221L6.96406 3.70542H7.36835L7.0414 3.94096L7.16445 4.32768L6.84101 4.08862L6.51406 4.32417L6.6371 3.94096L6.31367 3.70542H6.71445L6.84101 3.32221ZM9.11913 3.32221L9.2457 3.70542H9.64648L9.32304 3.94096L9.44609 4.32768L9.11913 4.08862L8.7957 4.32417L8.91874 3.94096L8.59179 3.70542H8.9996L9.11913 3.32221ZM11.4008 3.32221L11.5238 3.70542H11.9281L11.6012 3.94096L11.7242 4.32768L11.4008 4.08862L11.0738 4.32417L11.1969 3.94096L10.8734 3.70542H11.2742L11.4008 3.32221ZM1.13867 4.29253L1.26523 4.67573H1.66601L1.34258 4.91127L1.46562 5.29799L1.13867 5.05893L0.815234 5.29448L0.938281 4.91127L0.611328 4.67573H1.01914L1.13867 4.29253ZM3.42031 4.29253L3.54336 4.67573H3.94765L3.6207 4.91127L3.74375 5.29448L3.42031 5.05893L3.09336 5.29448L3.2164 4.91127L2.89297 4.67573H3.29375L3.42031 4.29253ZM5.69843 4.29253L5.825 4.67573H6.22226L5.89882 4.91127L6.02187 5.29799L5.69492 5.05893L5.37148 5.29448L5.49453 4.91127L5.16757 4.67573H5.57187L5.69843 4.29253ZM7.98007 4.29253L8.10312 4.67573H8.50741L8.18046 4.91127L8.30702 5.29799L7.98007 5.05893L7.65312 5.29448L7.77968 4.91127L7.45273 4.67573H7.85351L7.98007 4.29253ZM10.2582 4.29253L10.3848 4.67573H10.7855L10.4621 4.91127L10.5851 5.29799L10.2582 5.05893L9.93476 5.29448L10.0578 4.91127L9.73437 4.67573H10.1351L10.2582 4.29253ZM12.5398 4.29253L12.6629 4.67573H13.0672L12.7402 4.91127L12.8668 5.29799L12.5398 5.05893L12.2129 5.29448L12.3394 4.91127L12.0125 4.67573H12.4168L12.5398 4.29253ZM2.28125 5.26284L2.4043 5.64604H2.80859L2.48164 5.88159L2.60469 6.26479L2.28125 6.02573L1.9543 6.26479L2.07734 5.87807L1.75391 5.64252H2.15469L2.28125 5.26284ZM4.55937 5.26284L4.68593 5.64604H5.08671L4.75976 5.88159L4.88632 6.26479L4.55937 6.02573L4.23242 6.26479L4.35898 5.87807L4.03203 5.64252H4.43632L4.55937 5.26284ZM6.84101 5.26284L6.96406 5.64604H7.36835L7.0414 5.88159L7.16445 6.26479L6.84101 6.02573L6.51406 6.26479L6.6371 5.87807L6.31367 5.64252H6.71445L6.84101 5.26284ZM9.11913 5.26284L9.2457 5.64604H9.64648L9.32304 5.88159L9.44609 6.26479L9.11913 6.02573L8.7957 6.26479L8.91874 5.87807L8.59179 5.64252H8.9996L9.11913 5.26284ZM11.4008 5.26284L11.5238 5.64604H11.9281L11.6012 5.88159L11.7242 6.26479L11.4008 6.02573L11.0738 6.26479L11.1969 5.87807L10.8734 5.64252H11.2742L11.4008 5.26284ZM1.13867 6.22963L1.26523 6.61635H1.66601L1.34258 6.8519L1.46562 7.23158L1.13867 6.99604L0.815234 7.23158L0.938281 6.84838L0.611328 6.61284H1.01914L1.13867 6.22963ZM3.42031 6.22963L3.54336 6.61635H3.94765L3.6207 6.8519L3.74726 7.23158L3.42031 6.99604L3.09336 7.23158L3.21992 6.84838L2.89297 6.61284H3.29375L3.42031 6.22963ZM5.69843 6.22963L5.825 6.61635H6.22226L5.89882 6.8519L6.02187 7.23158L5.69492 6.99604L5.37148 7.23158L5.49453 6.84838L5.16757 6.61284H5.57187L5.69843 6.22963ZM7.98007 6.22963L8.10312 6.61635H8.50741L8.18046 6.8519L8.30702 7.23158L7.98007 6.99604L7.65312 7.23158L7.77968 6.84838L7.45273 6.61284H7.85351L7.98007 6.22963ZM10.2582 6.22963L10.3848 6.61635H10.7855L10.4621 6.8519L10.5851 7.23158L10.2582 6.99604L9.93476 7.23158L10.0578 6.84838L9.73437 6.61284H10.1351L10.2582 6.22963ZM12.5398 6.22963L12.6629 6.61635H13.0672L12.7402 6.8519L12.8668 7.23158L12.5398 6.99604L12.2129 7.23158L12.3394 6.84838L12.0125 6.61284H12.4168L12.5398 6.22963ZM2.28125 7.19994L2.4043 7.58315H2.80859L2.48164 7.81869L2.60469 8.20541L2.28125 7.96635L1.9543 8.2019L2.07734 7.81869L1.75391 7.58315H2.15469L2.28125 7.19994ZM4.55937 7.19994L4.68593 7.58315H5.08671L4.75976 7.81869L4.88632 8.20541L4.55937 7.96635L4.23242 8.2019L4.35898 7.81869L4.03203 7.58315H4.43632L4.55937 7.19994ZM6.84101 7.19994L6.96406 7.58315H7.36835L7.0414 7.81869L7.16445 8.20541L6.84101 7.96635L6.51406 8.2019L6.6371 7.81869L6.31367 7.58315H6.71445L6.84101 7.19994ZM9.11913 7.19994L9.2457 7.58315H9.64648L9.32304 7.81869L9.44609 8.20541L9.11913 7.96635L8.7957 8.2019L8.91874 7.81869L8.59179 7.58315H8.9996L9.11913 7.19994ZM11.4008 7.19994L11.5238 7.58315H11.9281L11.6012 7.81869L11.7242 8.20541L11.4008 7.96635L11.0738 8.2019L11.1969 7.81869L10.8734 7.58315H11.2742L11.4008 7.19994ZM1.13867 8.17026L1.26523 8.55346H1.66601L1.34258 8.78901L1.46562 9.17221L1.13867 8.93666L0.815234 9.17221L0.938281 8.78549L0.611328 8.54994H1.01914L1.13867 8.17026ZM3.42031 8.17026L3.54336 8.55346H3.94765L3.6207 8.78901L3.74726 9.17221L3.42031 8.93666L3.09336 9.17221L3.21992 8.78549L2.89297 8.54994H3.29375L3.42031 8.17026ZM5.69843 8.17026L5.825 8.55346H6.22226L5.90585 8.78901L6.0289 9.17221L5.70195 8.93666L5.37851 9.17221L5.50156 8.78549L5.17461 8.54994H5.5789L5.69843 8.17026ZM7.98007 8.17026L8.10312 8.55346H8.50741L8.18046 8.78901L8.30702 9.17221L7.98007 8.93666L7.65312 9.17221L7.77968 8.78549L7.45273 8.54994H7.85351L7.98007 8.17026ZM10.2582 8.17026L10.3848 8.55346H10.7855L10.4621 8.78901L10.5851 9.17221L10.2582 8.93666L9.93476 9.17221L10.0578 8.78549L9.73437 8.54994H10.1351L10.2582 8.17026ZM12.5398 8.17026L12.6629 8.55346H13.0672L12.7402 8.78901L12.8668 9.17221L12.5398 8.93666L12.2129 9.17221L12.3394 8.78549L12.0125 8.54994H12.4168L12.5398 8.17026Z" fill="white"/>
</g>
<defs>
<clipPath id="clip0">
<rect width="24" height="18" fill="white"/>
</clipPath>
</defs>
</svg>
