<svg width="18" height="14" viewBox="0 0 18 14" fill="none" xmlns="http://www.w3.org/2000/svg">
<path fill-rule="evenodd" clip-rule="evenodd" d="M13.274 4.59646C13.1342 4.59646 12.9931 4.57617 12.8502 4.57617C10.1887 4.57617 8.03125 6.54789 8.03125 8.9816C8.03125 9.07682 8.03569 9.17035 8.04217 9.26409C8.04395 9.28976 8.04632 9.31503 8.04858 9.3407C8.05536 9.41669 8.06411 9.49204 8.07503 9.56684C8.07768 9.58534 8.07975 9.60393 8.08267 9.62232C8.09754 9.71501 8.11543 9.80672 8.13642 9.89751C8.13982 9.91187 8.14378 9.92594 8.14725 9.94031C8.16646 10.0192 8.18804 10.0974 8.21185 10.1746C8.21732 10.1926 8.22268 10.2105 8.22853 10.2283C8.28699 10.4096 8.35781 10.586 8.44021 10.7568C8.44556 10.7681 8.45123 10.7792 8.45677 10.7903C8.49717 10.8723 8.54001 10.9531 8.58569 11.0324C8.58767 11.0357 8.58955 11.0392 8.59152 11.0427C8.64181 11.1295 8.69511 11.2145 8.75151 11.2976C9.60115 12.5515 11.1187 13.387 12.8502 13.387C13.6609 13.387 14.4243 13.2032 15.0948 12.8797L16.685 14L16.1998 12.1481C17.1054 11.347 17.6692 10.226 17.6692 8.98276C17.6692 6.67977 15.7369 4.79587 13.274 4.59646ZM13.7947 7.42546C13.7947 7.03515 14.1112 6.71873 14.5015 6.71873C14.8918 6.71873 15.2082 7.03515 15.2082 7.42546C15.2082 7.81579 14.8918 8.1323 14.5015 8.1323C14.1112 8.1323 13.7947 7.81579 13.7947 7.42546ZM10.6817 7.42546C10.6817 7.03515 10.9981 6.71873 11.3884 6.71873C11.7788 6.71873 12.0953 7.03515 12.0953 7.42546C12.0953 7.81579 11.7788 8.1323 11.3884 8.1323C10.9981 8.1323 10.6817 7.81579 10.6817 7.42546Z" fill="white"/>
<path fill-rule="evenodd" clip-rule="evenodd" d="M4.05782 3.77367C3.56984 3.77367 3.17429 3.37812 3.17429 2.89023C3.17429 2.40226 3.56984 2.00671 4.05782 2.00671C4.5458 2.00671 4.94125 2.40226 4.94125 2.89023C4.94125 3.37812 4.5458 3.77367 4.05782 3.77367ZM7.88748 2.00681C8.37533 2.00681 8.77088 2.40226 8.77088 2.89027C8.77088 3.37832 8.37533 3.77377 7.88748 3.77377C7.39947 3.77377 7.00392 3.37832 7.00392 2.89027C7.00392 2.40226 7.39947 2.00681 7.88748 2.00681ZM12.8506 3.8221C11.9864 1.74639 9.41233 0 6.52858 0C2.92292 0 0 2.33959 0 5.2256C0 6.7235 0.788483 8.07306 2.04998 9.02589L1.60214 10.9944L3.31731 9.77487C4.26576 10.2047 5.36087 10.4513 6.52858 10.4513C6.88235 10.4513 7.2292 10.428 7.56767 10.3847C7.3033 9.77487 7.25494 9.43665 7.23544 8.62941C7.18601 6.5829 8.82867 5.04902 10.1706 4.43556C11.5126 3.8221 12.767 3.819 12.8506 3.8221Z" fill="white"/>
</svg>
