<svg width="17" height="16" viewBox="0 0 17 16" fill="none" xmlns="http://www.w3.org/2000/svg">
<path d="M9.37904 13.8937L10.6674 13.8941L11.0915 15.3004L13.402 13.8941H16.126V2.29215H9.37904V13.8937ZM10.7501 3.55167H14.7551V12.6346H13.2187L11.6843 13.5686L11.405 12.6368L10.7503 12.6347L10.7501 3.55167ZM8.23997 7.60074H5.36237C5.45829 6.1557 5.48328 4.84959 5.48328 3.68309H8.29699C8.29699 3.68309 8.40523 2.47989 7.82531 2.49354H2.95803C3.14987 1.79381 3.39099 1.07154 3.67963 0.324707C3.67963 0.324707 2.35558 0.324707 1.90467 1.475C1.71811 1.94945 1.17814 3.77559 0.21648 5.64097C0.54032 5.60684 1.61163 5.57783 2.24259 4.45655C2.35875 4.14252 2.38075 4.10156 2.52507 3.68172H4.11259C4.11259 4.24151 4.04677 7.24865 4.02002 7.59852H1.14576C0.49984 7.59852 0.289872 8.85804 0.289872 8.85804H3.89664C3.65464 11.5172 2.35576 13.7581 0 15.5296C1.12693 15.8416 2.24998 15.4801 2.80491 15.0015C2.80491 15.0015 4.06894 13.8871 4.76203 11.3083L7.72992 14.7718C7.72992 14.7718 8.16517 13.3379 7.66163 12.6392C7.24451 12.1633 6.11846 10.8762 5.63834 10.4096L4.83402 11.0286C5.0739 10.2831 5.21822 9.55914 5.26698 8.85941H8.65744C8.65744 8.85941 8.65269 7.60074 8.23997 7.60074Z" fill="white"/>
</svg>
